<svg width="1600" height="420" viewBox="0 0 1600 420" fill="none" xmlns="http://www.w3.org/2000/svg"><defs><linearGradient id="g" x1="220" y1="60" x2="1400" y2="380"><stop stop-color="#A855F7"/><stop offset="1" stop-color="#22D3EE"/></linearGradient><radialGradient id="r1"><stop stop-color="#0EA5E9" stop-opacity=".18"/><stop offset="1" stop-color="#0EA5E9" stop-opacity="0"/></radialGradient></defs><rect width="1600" height="420" rx="28" fill="#05070B"/><rect x="1" y="1" width="1598" height="418" rx="27" stroke="#202634"/><circle cx="1430" cy="210" r="210" fill="url(#r1)"/><g opacity=".35" stroke="#7C3AED"><path d="M0 90H210L265 35H430"/><path d="M0 330H180L245 265H390"/></g><g opacity=".35" stroke="#0EA5E9"><path d="M1600 90H1390L1335 35H1170"/><path d="M1600 330H1420L1355 265H1210"/></g><path d="M170 100L120 280H195L245 100H170Z" fill="url(#g)"/><path d="M195 280H345L375 210H220L195 280Z" fill="url(#g)"/><text x="445" y="145" fill="#F8FAFC" font-family="Arial,Helvetica,sans-serif" font-weight="700" font-size="54" letter-spacing="2">DEEPSEEK HARNESS</text><text x="448" y="205" fill="#67E8F9" font-family="Arial,Helvetica,sans-serif" font-size="30" letter-spacing="5">DESKTOP RU</text><line x1="448" y1="240" x2="1320" y2="240" stroke="url(#g)" stroke-width="2"/><text x="448" y="295" fill="#CBD5E1" font-family="Arial,Helvetica,sans-serif" font-size="24">Windows · Russian localization · Local Harness</text><text x="448" y="345" fill="#64748B" font-family="monospace" font-size="20">&gt; install · launch · connect · work</text></svg>